<svg width="290" height="69" viewBox="0 0 290 69" fill="none" xmlns="http://www.w3.org/2000/svg">
<g clip-path="url(#clip0_106_875)">
<path fill-rule="evenodd" clip-rule="evenodd" d="M27.7065 0.41297C35.7798 1.20351 38.5468 11.2207 44.5253 16.7073C51.0585 22.7031 62.0113 24.8499 63.8009 33.5383C65.7345 42.9262 60.1046 52.4049 53.2588 59.109C46.4836 65.7439 37.1474 69.7409 27.7065 68.8854C18.905 68.0878 11.8509 61.8218 6.39771 54.8624C1.64103 48.7919 -0.145997 41.2509 0.00924118 33.5383C0.160718 26.0125 2.41222 18.8292 7.23918 13.0562C12.5878 6.65939 19.4113 -0.3993 27.7065 0.41297Z" fill="#F55529"/>
<g clip-path="url(#clip1_106_875)">
<path d="M36.5217 25.1739H53.5652C54.908 25.1739 56 24.0819 56 22.7391V15.4348C56 14.092 54.908 13 53.5652 13H36.5217C35.179 13 34.087 14.092 34.087 15.4348V17.8696H28C27.328 17.8696 26.7826 18.415 26.7826 19.087V39.7826H21.913V37.3478C21.913 36.005 20.821 34.913 19.4783 34.913H2.43478C1.092 34.913 0 36.005 0 37.3478V44.6522C0 45.995 1.092 47.087 2.43478 47.087H19.4783C20.821 47.087 21.913 45.995 21.913 44.6522V42.2174H26.7826V62.913C26.7826 63.585 27.328 64.1304 28 64.1304H34.087V66.5652C34.087 67.908 35.179 69 36.5217 69H53.5652C54.908 69 56 67.908 56 66.5652V59.2609C56 57.9181 54.908 56.8261 53.5652 56.8261H36.5217C35.179 56.8261 34.087 57.9181 34.087 59.2609V61.6957H29.2174V42.2174H34.087V44.6522C34.087 45.995 35.179 47.087 36.5217 47.087H53.5652C54.908 47.087 56 45.995 56 44.6522V37.3478C56 36.005 54.908 34.913 53.5652 34.913H36.5217C35.179 34.913 34.087 36.005 34.087 37.3478V39.7826H29.2174V20.3043H34.087V22.7391C34.087 24.0819 35.179 25.1739 36.5217 25.1739ZM36.5217 15.4348L53.5652 15.4336V22.7391H36.5217V15.4348ZM19.4783 44.6522H2.43478V37.3478L19.4783 37.3466V44.6522ZM36.5217 59.2609L53.5652 59.2597V66.5652H36.5217V59.2609ZM36.5217 37.3478L53.5652 37.3466V44.6522H36.5217V37.3478Z" fill="white"/>
</g>
</g>
<defs>
<clipPath id="clip0_106_875">
<rect width="290" height="68.6512" fill="white" transform="translate(0 0.348877)"/>
</clipPath>
<clipPath id="clip1_106_875">
<rect width="56" height="56" fill="white" transform="translate(0 13)"/>
</clipPath>
</defs>
</svg>
