<svg width="38" height="38" viewBox="0 0 38 38" fill="none" xmlns="http://www.w3.org/2000/svg">
<rect width="38" height="38" rx="19" fill="#FF4343"/>
<path d="M26.2714 9.85626H11.9026C11.383 9.85626 10.8846 10.0627 10.5171 10.4301C10.1497 10.7976 9.94324 11.296 9.94324 11.8156V26.1844C9.94324 26.704 10.1497 27.2024 10.5171 27.5699C10.8846 27.9373 11.383 28.1438 11.9026 28.1438H17.5052V21.9264H14.9335V19H17.5052V16.7696C17.5052 14.2326 19.0156 12.8312 21.3288 12.8312C22.4367 12.8312 23.5952 13.0288 23.5952 13.0288V15.5189H22.3187C21.0611 15.5189 20.6688 16.2993 20.6688 17.0998V19H23.4764L23.0274 21.9264H20.6688V28.1438H26.2714C26.791 28.1438 27.2894 27.9373 27.6568 27.5699C28.0243 27.2024 28.2307 26.704 28.2307 26.1844V11.8156C28.2307 11.296 28.0243 10.7976 27.6568 10.4301C27.2894 10.0627 26.791 9.85626 26.2714 9.85626Z" fill="#F6F9FC"/>
</svg>
