<svg width="38" height="38" viewBox="0 0 38 38" fill="none" xmlns="http://www.w3.org/2000/svg">
<rect width="38" height="38" rx="19" fill="#FF4343"/>
<g clip-path="url(#clip0_76_128)">
<path d="M15.9752 25.0986C15.9752 25.1802 15.8813 25.2455 15.7629 25.2455C15.6282 25.2578 15.5344 25.1924 15.5344 25.0986C15.5344 25.0169 15.6282 24.9516 15.7466 24.9516C15.8691 24.9394 15.9752 25.0047 15.9752 25.0986ZM14.7057 24.9149C14.6771 24.9965 14.7588 25.0904 14.8812 25.1149C14.9874 25.1557 15.1098 25.1149 15.1343 25.0332C15.1588 24.9516 15.0813 24.8577 14.9588 24.821C14.8527 24.7924 14.7343 24.8332 14.7057 24.9149ZM16.51 24.8455C16.3916 24.874 16.3099 24.9516 16.3222 25.0455C16.3344 25.1271 16.4406 25.1802 16.563 25.1516C16.6814 25.123 16.763 25.0455 16.7508 24.9639C16.7386 24.8863 16.6283 24.8332 16.51 24.8455ZM19.1959 9.20312C13.5342 9.20312 9.20312 13.5015 9.20312 19.1633C9.20312 23.6903 12.0524 27.5641 16.1222 28.9275C16.6447 29.0214 16.8284 28.6989 16.8284 28.4336C16.8284 28.1805 16.8161 26.7844 16.8161 25.9272C16.8161 25.9272 13.9587 26.5395 13.3586 24.7108C13.3586 24.7108 12.8933 23.5229 12.2238 23.2167C12.2238 23.2167 11.289 22.5759 12.2891 22.5881C12.2891 22.5881 13.3056 22.6697 13.8648 23.6413C14.7588 25.2169 16.2569 24.7638 16.8406 24.4944C16.9345 23.8413 17.1998 23.3882 17.4937 23.1188C15.2119 22.8657 12.9096 22.535 12.9096 18.6081C12.9096 17.4856 13.2198 16.9222 13.873 16.2038C13.7668 15.9385 13.4199 14.8445 13.9791 13.4321C14.8322 13.1668 16.7957 14.5343 16.7957 14.5343C17.6121 14.3057 18.4897 14.1873 19.3592 14.1873C20.2287 14.1873 21.1063 14.3057 21.9227 14.5343C21.9227 14.5343 23.8862 13.1627 24.7393 13.4321C25.2986 14.8486 24.9516 15.9385 24.8455 16.2038C25.4986 16.9263 25.8986 17.4896 25.8986 18.6081C25.8986 22.5473 23.4943 22.8616 21.2125 23.1188C21.588 23.4413 21.9064 24.0536 21.9064 25.0128C21.9064 26.3885 21.8942 28.0907 21.8942 28.4254C21.8942 28.6907 22.0819 29.0132 22.6004 28.9193C26.6824 27.5641 29.45 23.6903 29.45 19.1633C29.45 13.5015 24.8577 9.20312 19.1959 9.20312ZM13.1709 23.2821C13.1178 23.3229 13.13 23.4168 13.1994 23.4943C13.2647 23.5596 13.3586 23.5882 13.4117 23.5351C13.4648 23.4943 13.4525 23.4004 13.3831 23.3229C13.3178 23.2576 13.2239 23.229 13.1709 23.2821ZM12.73 22.9514C12.7014 23.0045 12.7422 23.0698 12.8239 23.1106C12.8892 23.1514 12.9708 23.1392 12.9994 23.082C13.028 23.029 12.9872 22.9637 12.9055 22.9228C12.8239 22.8983 12.7586 22.9106 12.73 22.9514ZM14.0526 24.4046C13.9873 24.4577 14.0118 24.5801 14.1056 24.6577C14.1995 24.7516 14.3179 24.7638 14.371 24.6985C14.424 24.6455 14.3996 24.523 14.3179 24.4454C14.2281 24.3515 14.1056 24.3393 14.0526 24.4046ZM13.5872 23.8046C13.5219 23.8454 13.5219 23.9515 13.5872 24.0454C13.6525 24.1393 13.7628 24.1801 13.8158 24.1393C13.8811 24.0862 13.8811 23.9801 13.8158 23.8862C13.7587 23.7923 13.6525 23.7515 13.5872 23.8046Z" fill="#F6F9FC"/>
</g>
<defs>
<clipPath id="clip0_76_128">
<rect width="20.9" height="20.9" fill="white" transform="translate(8.55005 8.55005)"/>
</clipPath>
</defs>
</svg>
