<svg width="38" height="38" viewBox="0 0 38 38" fill="none" xmlns="http://www.w3.org/2000/svg">
<rect width="38" height="38" rx="19" fill="#FF4343"/>
<g clip-path="url(#clip0_106_178)">
<path d="M18.9994 8.87659C13.4173 8.87659 8.87598 13.4179 8.87598 19C8.87598 24.5821 13.4173 29.1235 18.9994 29.1235C24.5815 29.1235 29.1229 24.5821 29.1229 19C29.1229 13.4179 24.5815 8.87659 18.9994 8.87659ZM25.6927 13.545C26.897 15.0165 27.6263 16.8906 27.6454 18.9315C27.3603 18.8712 24.5015 18.2913 21.6243 18.6532C21.3895 18.08 21.1679 17.5758 20.8643 16.9545C24.0614 15.6492 25.5104 13.7916 25.6927 13.545ZM24.7314 12.5451C24.5759 12.7666 23.2743 14.5162 20.1995 15.6686C18.7826 13.0653 17.2121 10.9266 16.9731 10.6066C19.7152 9.94559 22.6049 10.6584 24.7314 12.5451ZM15.3232 11.1878C15.5512 11.5005 17.0963 13.6418 18.5291 16.1887C14.4843 17.2628 10.9218 17.2473 10.5351 17.2422C11.0958 14.559 12.904 12.3289 15.3232 11.1878ZM10.3524 19.0132C10.3524 18.9248 10.3542 18.8368 10.3569 18.749C10.7352 18.7567 14.9255 18.8107 19.2437 17.5184C19.4912 18.0029 19.7277 18.4946 19.9447 18.9859C16.8179 19.8666 13.977 22.3955 12.5754 24.7948C11.1943 23.2619 10.3524 21.2341 10.3524 19.0132ZM13.6918 25.8348C14.5951 23.9884 17.0464 21.6049 20.5325 20.4157C21.7465 23.5704 22.2485 26.2143 22.3771 26.973C19.5967 28.1573 16.2534 27.8324 13.6918 25.8348ZM23.8308 26.1813C23.7422 25.6553 23.2819 23.124 22.1509 20.0161C24.8606 19.5824 27.2412 20.2924 27.5371 20.3858C27.1516 22.7917 25.7706 24.8696 23.8308 26.1813Z" fill="#F6F9FC"/>
</g>
<defs>
<clipPath id="clip0_106_178">
<rect width="20.9" height="20.9" fill="white" transform="translate(8.5498 8.55005)"/>
</clipPath>
</defs>
</svg>
