<svg width="65" height="69" viewBox="0 0 65 69" fill="none" xmlns="http://www.w3.org/2000/svg">
<path fill-rule="evenodd" clip-rule="evenodd" d="M27.7065 0.0640931C35.7798 0.854637 38.5468 10.8718 44.5253 16.3585C51.0585 22.3543 62.0113 24.5011 63.8009 33.1894C65.7345 42.5773 60.1046 52.056 53.2588 58.7601C46.4836 65.395 37.1474 69.392 27.7065 68.5365C18.905 67.7389 11.8509 61.4729 6.39771 54.5135C1.64103 48.443 -0.145997 40.902 0.00924118 33.1894C0.160718 25.6636 2.41222 18.4803 7.23918 12.7074C12.5878 6.31051 19.4113 -0.748177 27.7065 0.0640931Z" fill="#F55529"/>
<g clip-path="url(#clip0_106_528)">
<path d="M5.10595 42.8776C3.44662 42.8776 1.83779 42.343 0.790486 41.8059L0 45.0227C0.969825 45.5589 2.91122 46.0691 4.87698 46.0691C9.60075 46.0691 11.8216 43.6184 11.8216 40.7333C11.8216 38.3079 10.3912 36.7252 7.35378 35.6013C5.13206 34.7577 4.16224 34.2736 4.16224 33.1758C4.16224 32.2817 4.97884 31.5156 6.66428 31.5156C8.34973 31.5156 9.5755 32.0014 10.2641 32.3331L11.133 29.1929C10.1109 28.7333 8.68142 28.325 6.74089 28.325C2.68138 28.325 0.229833 30.571 0.229833 33.5075C0.229833 36.0096 2.09374 37.5923 4.9536 38.5882C7.02122 39.3291 7.83869 39.942 7.83869 41.0128C7.83869 42.1376 6.89325 42.8776 5.10595 42.8776Z" fill="white"/>
<path d="M25.43 42.6225H18.3583V38.5378H24.6892V35.3715H18.3583V31.7969H25.0731V28.6053H14.4512V45.8141H25.43V42.6225Z" fill="white"/>
<path d="M38.59 47.1199C41.0058 47.1199 43.2197 46.2502 44.9434 44.8103L48.3709 48.0088C48.3657 48.3657 48.4954 48.7192 48.7757 48.9812L53.8051 53.6771C54.0567 53.9122 54.3753 54.028 54.6948 54.028C55.0439 54.028 55.393 53.8887 55.6498 53.6118C56.1417 53.086 56.113 52.2572 55.5871 51.7662L50.5578 47.0712C50.2775 46.8091 49.9136 46.7055 49.5601 46.7342L46.1779 43.5784C47.6327 41.852 48.5146 39.6251 48.5146 37.1953C48.5146 31.7237 44.0642 27.2733 38.5926 27.2733C33.121 27.2733 28.668 31.7255 28.668 37.1962C28.6671 42.6695 33.1184 47.1199 38.59 47.1199ZM38.59 29.8859C42.6216 29.8859 45.9011 33.1654 45.9011 37.1962C45.9011 41.227 42.6199 44.5073 38.59 44.5073C34.56 44.5073 31.2788 41.227 31.2788 37.1962C31.2788 33.1654 34.5583 29.8859 38.59 29.8859Z" fill="white"/>
</g>
<defs>
<clipPath id="clip0_106_528">
<rect width="56" height="56" fill="white" transform="translate(0 12.6511)"/>
</clipPath>
</defs>
</svg>
