<svg width="38" height="38" viewBox="0 0 38 38" fill="none" xmlns="http://www.w3.org/2000/svg">
<rect width="38" height="38" rx="19" fill="#FF4343"/>
<path d="M26.2715 9.85632H11.9027C11.3831 9.85632 10.8847 10.0628 10.5172 10.4302C10.1498 10.7977 9.94336 11.296 9.94336 11.8157V26.1844C9.94336 26.7041 10.1498 27.2025 10.5172 27.5699C10.8847 27.9374 11.3831 28.1438 11.9027 28.1438H17.5053V21.9265H14.9336V19.0001H17.5053V16.7697C17.5053 14.2327 19.0157 12.8313 21.329 12.8313C22.4368 12.8313 23.5953 13.0289 23.5953 13.0289V15.5189H22.3189C21.0612 15.5189 20.6689 16.2994 20.6689 17.0999V19.0001H23.4765L23.0275 21.9265H20.6689V28.1438H26.2715C26.7911 28.1438 27.2895 27.9374 27.657 27.5699C28.0244 27.2025 28.2309 26.7041 28.2309 26.1844V11.8157C28.2309 11.296 28.0244 10.7977 27.657 10.4302C27.2895 10.0628 26.7911 9.85632 26.2715 9.85632Z" fill="#F6F9FC"/>
</svg>
