<svg width="38" height="38" viewBox="0 0 38 38" fill="none" xmlns="http://www.w3.org/2000/svg">
<rect width="38" height="38" rx="19" fill="#FF4343"/>
<g clip-path="url(#clip0_106_169)">
<path d="M27.3014 14.7432C27.3147 14.9288 27.3147 15.1145 27.3147 15.3002C27.3147 20.9628 23.0048 27.4874 15.1275 27.4874C12.7006 27.4874 10.4462 26.7845 8.5498 25.5645C8.89461 25.6043 9.22612 25.6176 9.58419 25.6176C11.5866 25.6176 13.43 24.9412 14.902 23.7875C13.0189 23.7477 11.4408 22.5144 10.8971 20.8169C11.1623 20.8567 11.4275 20.8832 11.706 20.8832C12.0906 20.8832 12.4752 20.8302 12.8332 20.7374C10.8706 20.3395 9.3985 18.6155 9.3985 16.5335V16.4805C9.96872 16.7987 10.6318 16.9977 11.3346 17.0241C10.1809 16.255 9.42503 14.9421 9.42503 13.4568C9.42503 12.6611 9.63718 11.9318 10.0085 11.2952C12.1171 13.8945 15.2866 15.5919 18.8406 15.7776C18.7743 15.4593 18.7345 15.1278 18.7345 14.7963C18.7345 12.4357 20.6442 10.5128 23.018 10.5128C24.2513 10.5128 25.3652 11.03 26.1476 11.8655C27.1157 11.6798 28.044 11.3218 28.8662 10.8311C28.5479 11.8257 27.8716 12.6612 26.9831 13.1916C27.8451 13.0988 28.6806 12.8601 29.4497 12.5286C28.8663 13.3773 28.1369 14.1331 27.3014 14.7432Z" fill="#F6F9FC"/>
</g>
<defs>
<clipPath id="clip0_106_169">
<rect width="20.9" height="20.9" fill="white" transform="translate(8.5498 8.55005)"/>
</clipPath>
</defs>
</svg>
