<svg width="38" height="38" viewBox="0 0 38 38" fill="none" xmlns="http://www.w3.org/2000/svg">
<rect width="38" height="38" rx="19" fill="#FF4343"/>
<g clip-path="url(#clip0_88_349)">
<path d="M19 8.87656C13.4179 8.87656 8.87659 13.4179 8.87659 19C8.87659 24.5821 13.4179 29.1234 19 29.1234C24.5821 29.1234 29.1235 24.5821 29.1235 19C29.1235 13.4179 24.5821 8.87656 19 8.87656ZM25.6933 13.545C26.8977 15.0164 27.6269 16.8905 27.646 18.9315C27.3609 18.8712 24.5021 18.2913 21.6249 18.6531C21.3901 18.08 21.1685 17.5758 20.8649 16.9544C24.062 15.6491 25.511 13.7916 25.6933 13.545ZM24.7321 12.5451C24.5765 12.7666 23.2749 14.5161 20.2001 15.6686C18.7832 13.0653 17.2127 10.9266 16.9737 10.6066C19.7158 9.94556 22.6055 10.6584 24.7321 12.5451ZM15.3238 11.1878C15.5518 11.5004 17.0969 13.6418 18.5297 16.1887C14.4849 17.2628 10.9224 17.2473 10.5357 17.2422C11.0964 14.5589 12.9047 12.3289 15.3238 11.1878ZM10.3531 19.0132C10.3531 18.9248 10.3548 18.8368 10.3575 18.749C10.7358 18.7567 14.9261 18.8107 19.2443 17.5184C19.4918 18.0028 19.7283 18.4946 19.9453 18.9858C16.8185 19.8665 13.9777 22.3954 12.576 24.7948C11.1949 23.2618 10.3531 21.2341 10.3531 19.0132ZM13.6924 25.8348C14.5957 23.9884 17.047 21.6049 20.5331 20.4156C21.7471 23.5704 22.2491 26.2143 22.3777 26.9729C19.5973 28.1573 16.254 27.8323 13.6924 25.8348ZM23.8314 26.1813C23.7428 25.6553 23.2825 23.124 22.1516 20.0161C24.8612 19.5823 27.2419 20.2924 27.5377 20.3857C27.1523 22.7917 25.7713 24.8696 23.8314 26.1813Z" fill="#F6F9FC"/>
</g>
<defs>
<clipPath id="clip0_88_349">
<rect width="20.9" height="20.9" fill="white" transform="translate(8.55005 8.54999)"/>
</clipPath>
</defs>
</svg>
