<svg width="38" height="38" viewBox="0 0 38 38" fill="none" xmlns="http://www.w3.org/2000/svg">
<rect width="38" height="38" rx="19" fill="#FF4343"/>
<g clip-path="url(#clip0_88_340)">
<path d="M27.3017 14.7432C27.3149 14.9288 27.3149 15.1145 27.3149 15.3002C27.3149 20.9627 23.005 27.4874 15.1277 27.4874C12.7009 27.4874 10.4464 26.7845 8.55005 25.5645C8.89486 25.6043 9.22636 25.6175 9.58444 25.6175C11.5869 25.6175 13.4302 24.9412 14.9023 23.7875C13.0191 23.7477 11.441 22.5144 10.8973 20.8169C11.1625 20.8567 11.4278 20.8832 11.7063 20.8832C12.0908 20.8832 12.4755 20.8301 12.8335 20.7373C10.8708 20.3395 9.39874 18.6155 9.39874 16.5335V16.4804C9.96896 16.7987 10.6321 16.9976 11.3349 17.0241C10.1811 16.2549 9.42528 14.9421 9.42528 13.4568C9.42528 12.6611 9.63742 11.9317 10.0088 11.2952C12.1173 13.8944 15.2868 15.5919 18.8408 15.7775C18.7746 15.4593 18.7348 15.1278 18.7348 14.7962C18.7348 12.4357 20.6444 10.5128 23.0182 10.5128C24.2515 10.5128 25.3654 11.03 26.1479 11.8654C27.1159 11.6798 28.0442 11.3217 28.8665 10.8311C28.5482 11.8257 27.8719 12.6612 26.9834 13.1916C27.8454 13.0988 28.6808 12.86 29.45 12.5285C28.8666 13.3772 28.1371 14.1331 27.3017 14.7432Z" fill="#F6F9FC"/>
</g>
<defs>
<clipPath id="clip0_88_340">
<rect width="20.9" height="20.9" fill="white" transform="translate(8.55005 8.54999)"/>
</clipPath>
</defs>
</svg>
