<svg width="38" height="38" viewBox="0 0 38 38" fill="none" xmlns="http://www.w3.org/2000/svg">
<rect width="38" height="38" rx="19" fill="#FF4343"/>
<g clip-path="url(#clip0_88_131)">
<path d="M19.0001 8.87659C13.4181 8.87659 8.87671 13.4179 8.87671 19C8.87671 24.5821 13.4181 29.1235 19.0001 29.1235C24.5822 29.1235 29.1236 24.5821 29.1236 19C29.1236 13.4179 24.5822 8.87659 19.0001 8.87659ZM25.6935 13.545C26.8978 15.0165 27.6271 16.8906 27.6461 18.9315C27.361 18.8712 24.5022 18.2913 21.625 18.6532C21.3902 18.08 21.1686 17.5758 20.8651 16.9545C24.0622 15.6492 25.5112 13.7916 25.6935 13.545V13.545ZM24.7322 12.5451C24.5767 12.7666 23.275 14.5162 20.2003 15.6686C18.7833 13.0653 17.2128 10.9266 16.9738 10.6066C19.716 9.94559 22.6056 10.6584 24.7322 12.5451V12.5451ZM15.3239 11.1878C15.5519 11.5005 17.0971 13.6418 18.5298 16.1887C14.4851 17.2628 10.9225 17.2473 10.5358 17.2422C11.0965 14.559 12.9048 12.3289 15.3239 11.1878ZM10.3532 19.0132C10.3532 18.9248 10.3549 18.8368 10.3576 18.749C10.7359 18.7567 14.9262 18.8107 19.2444 17.5184C19.492 18.0029 19.7284 18.4946 19.9455 18.9859C16.8187 19.8666 13.9778 22.3955 12.5761 24.7948C11.1951 23.2619 10.3532 21.2341 10.3532 19.0132ZM13.6926 25.8348C14.5958 23.9884 17.0471 21.6049 20.5332 20.4157C21.7472 23.5704 22.2492 26.2143 22.3778 26.973C19.5975 28.1573 16.2542 27.8324 13.6926 25.8348V25.8348ZM23.8315 26.1813C23.7429 25.6553 23.2826 23.124 22.1517 20.0161C24.8613 19.5824 27.242 20.2924 27.5378 20.3858C27.1524 22.7917 25.7714 24.8696 23.8315 26.1813Z" fill="#F6F9FC"/>
</g>
<defs>
<clipPath id="clip0_88_131">
<rect width="20.9" height="20.9" fill="white" transform="translate(8.55005 8.55005)"/>
</clipPath>
</defs>
</svg>
