<svg width="116" height="21" viewBox="0 0 116 21" fill="none" xmlns="http://www.w3.org/2000/svg">
<path d="M0.941406 19.9999V1.04588H4.58641V19.9999H0.941406ZM23.4074 1.04588H27.0254V20.0269L26.1884 20.2699L14.7674 8.74088V19.9999H11.1764V1.01888L12.0134 0.775879L23.4074 12.3049V1.04588ZM36.9904 16.9219H45.4414V19.9999H33.3454V1.04588H45.1714V4.12388H36.9904V8.84888H43.7404V11.9269H36.9904V16.9219ZM64.1004 7.09388C64.1004 9.57788 62.5344 11.5489 60.7524 12.4399L65.6124 19.9999H61.1844L57.1884 13.4659C56.3784 13.5469 55.5684 13.5739 54.6504 13.4929V19.9999H51.0054V1.20788C59.9694 -0.331121 64.1004 2.42288 64.1004 7.09388ZM54.6504 4.23188V10.3339C58.6194 10.7389 60.3474 9.25388 60.3474 7.03988C60.3474 5.01488 58.5114 3.63788 54.6504 4.23188ZM82.7054 1.04588V4.12388H77.3864V19.9999H73.7414V4.12388H68.4494V1.04588H82.7054ZM87.8914 19.9999V1.04588H91.5364V19.9999H87.8914ZM100.286 19.9999H96.2364L105.011 0.856879H106.28L115.001 19.9999H110.978L109.547 16.9219H101.717L100.286 19.9999ZM105.632 7.79588L103.013 13.8979H108.224L105.632 7.79588Z" fill="white"/>
</svg>
