<svg width="114" height="21" viewBox="0 0 114 21" fill="none" xmlns="http://www.w3.org/2000/svg">
<g clip-path="url(#clip0_80_877)">
<path d="M0.429688 20V1.046H4.07469V20H0.429688ZM22.8957 1.046H26.5137V20.027L25.6767 20.27L14.2557 8.741V20H10.6647V1.019L11.5017 0.776001L22.8957 12.305V1.046ZM36.4787 16.922H44.9297V20H32.8337V1.046H44.6597V4.124H36.4787V8.849H43.2287V11.927H36.4787V16.922ZM63.5887 7.094C63.5887 9.578 62.0227 11.549 60.2407 12.44L65.1007 20H60.6727L56.6767 13.466C55.8667 13.547 55.0567 13.574 54.1387 13.493V20H50.4937V1.208C59.4577 -0.330999 63.5887 2.423 63.5887 7.094ZM54.1387 4.232V10.334C58.1077 10.739 59.8357 9.254 59.8357 7.04C59.8357 5.015 57.9997 3.638 54.1387 4.232ZM82.1937 1.046V4.124H76.8747V20H73.2297V4.124H67.9377V1.046H82.1937ZM87.3797 20V1.046H91.0247V20H87.3797ZM99.7747 20H95.7247L104.5 0.857001H105.769L114.49 20H110.467L109.036 16.922H101.206L99.7747 20ZM105.121 7.796L102.502 13.898H107.713L105.121 7.796Z" fill="#1E2E50"/>
</g>
<defs>
<clipPath id="clip0_80_877">
<rect width="114" height="21" fill="white"/>
</clipPath>
</defs>
</svg>
